<svg width="75" height="33" viewBox="0 0 75 33" fill="none" xmlns="http://www.w3.org/2000/svg">
<g clip-path="url(#clip0_53_11493)">
<mask id="mask0_53_11493" style="mask-type:luminance" maskUnits="userSpaceOnUse" x="4" y="5" width="22" height="23">
<path d="M15 5.77588C12.8244 5.77588 10.6977 6.42102 8.88874 7.62971C7.0798 8.83841 5.6699 10.5564 4.83733 12.5664C4.00477 14.5763 3.78693 16.7881 4.21137 18.9219C4.63581 21.0557 5.68345 23.0157 7.22183 24.5541C8.76021 26.0924 10.7202 27.1401 12.854 27.5645C14.9878 27.9889 17.1996 27.7711 19.2095 26.9385C21.2195 26.106 22.9375 24.6961 24.1462 22.8871C25.3549 21.0782 26 18.9515 26 16.7759C26 13.8585 24.8411 11.0606 22.7782 8.9977C20.7153 6.9348 17.9174 5.77588 15 5.77588ZM20.6785 22.4323C20.2174 23.0202 19.6268 23.4937 18.9527 23.8159C18.3739 24.1008 17.7574 24.3016 17.1218 24.4123C16.6384 24.5052 16.1474 24.5527 15.6551 24.5541C15.352 24.5541 15.0514 24.5541 14.7507 24.5394C14.3193 24.5122 13.8899 24.4592 13.4649 24.3805C12.8216 24.2643 12.1889 24.0958 11.5729 23.877C10.776 23.6011 10.0171 23.2258 9.31423 22.7599C9.01288 22.561 8.73347 22.3308 8.48068 22.073L8.40001 22.0021L8.71534 21.6354C9.11623 21.171 9.51712 20.7065 9.92046 20.247C10.1343 19.9818 10.3715 19.7364 10.6293 19.5137C10.8782 19.3094 11.1789 19.1783 11.4979 19.1352C11.8169 19.092 12.1416 19.1384 12.4358 19.2692C12.8301 19.4327 13.1759 19.6944 13.4405 20.0294C13.7506 20.4009 13.9983 20.8203 14.1738 21.2712C14.3118 21.6221 14.5086 21.947 14.7556 22.2319C14.9443 22.4555 15.2025 22.6096 15.4889 22.6694C15.5986 22.6988 15.7141 22.6988 15.8238 22.6694C15.8573 22.6542 15.89 22.6371 15.9216 22.6181C15.8148 22.4066 15.7595 22.173 15.7602 21.9361C15.7554 21.8596 15.7554 21.7828 15.7602 21.7063C15.7673 21.3952 15.7386 21.0844 15.6747 20.7799C15.646 20.6826 15.6553 20.578 15.7007 20.4873C15.746 20.3966 15.8241 20.3264 15.9191 20.291C16.1954 20.159 16.4765 20.0465 16.7551 19.9121C17.3027 19.6677 17.8674 19.4672 18.4296 19.2594C18.5562 19.2122 18.6802 19.1583 18.8011 19.0981C18.8517 19.0642 18.8971 19.023 18.9356 18.9759C18.9845 18.9294 18.982 18.8928 18.9356 18.8463C18.9057 18.8192 18.8729 18.7954 18.8378 18.7754C18.3535 18.5007 17.8102 18.3465 17.2538 18.3257C16.9654 18.3257 16.6769 18.3085 16.3885 18.3085C15.8996 18.3085 15.4107 18.3379 14.9218 18.3257C13.8867 18.2965 12.8638 18.094 11.8956 17.7268C11.4457 17.5634 11.0204 17.3389 10.6318 17.0594C9.80677 16.4752 9.21803 15.6151 8.97201 14.6345C8.87364 14.2542 8.83569 13.8607 8.85957 13.4685C8.90622 12.588 9.2344 11.7457 9.79579 11.0657C10.352 10.3909 11.0738 9.87207 11.8907 9.55988C12.4695 9.33097 13.0747 9.17575 13.6922 9.09788C14.032 9.05143 14.3718 9.02943 14.714 9.00988C15.106 8.99357 15.4985 8.99928 15.8898 9.02699C16.7524 9.06369 17.6053 9.22422 18.4222 9.50366C19.1788 9.76155 19.882 10.155 20.4976 10.6648C20.5416 10.7014 20.5807 10.7381 20.6345 10.7894C20.6136 10.7994 20.5914 10.806 20.5685 10.809C19.9514 10.8639 19.3552 11.0595 18.8256 11.381C18.4997 11.5659 18.192 11.7812 17.9065 12.0239C17.7945 12.124 17.6484 12.1774 17.4982 12.173C17.332 12.173 17.1658 12.1485 17.0094 12.1339C16.8847 12.1217 16.7649 12.1021 16.6329 12.0948C16.04 12.0504 15.4449 12.0414 14.8509 12.0679C14.2649 12.0916 13.6827 12.1735 13.1129 12.3123C12.8838 12.3641 12.6626 12.4463 12.4553 12.5568C12.3808 12.5977 12.3111 12.6469 12.2476 12.7034C12.2146 12.728 12.1869 12.7588 12.1659 12.7942C12.145 12.8296 12.1313 12.8687 12.1256 12.9094C12.1199 12.9501 12.1224 12.9916 12.1328 13.0313C12.1433 13.0711 12.1615 13.1083 12.1865 13.141C12.3313 13.3811 12.5254 13.5877 12.756 13.7472C12.9221 13.862 13.1009 13.9571 13.2889 14.0308C13.3116 14.0397 13.3324 14.053 13.35 14.0699C13.1762 14.0444 13.0097 13.9827 12.8611 13.889C12.8805 13.9554 12.9187 14.0148 12.9711 14.0601C13.1116 14.1959 13.2778 14.3023 13.46 14.373C13.7577 14.4893 14.0643 14.5817 14.3767 14.6492C14.6749 14.725 14.9805 14.7568 15.2811 14.8057C15.7544 14.8769 16.1823 15.1272 16.4765 15.5048C16.6575 15.742 16.8668 15.9563 17.0998 16.1428C17.2559 16.2799 17.4443 16.3749 17.6474 16.419C17.7137 16.43 17.7814 16.43 17.8478 16.419C17.9114 16.419 17.9309 16.375 17.9187 16.3114C17.9103 16.2671 17.8955 16.2243 17.8747 16.1843C17.8234 16.0841 17.7671 15.9863 17.7207 15.8837C17.6898 15.8139 17.6668 15.7409 17.6522 15.6661C17.643 15.611 17.6557 15.5546 17.6877 15.5088C17.7197 15.4631 17.7685 15.4318 17.8234 15.4217C17.9381 15.3917 18.0592 15.3977 18.1705 15.4388C18.3905 15.5145 18.6129 15.5952 18.8256 15.6832C19.3256 15.9028 19.789 16.198 20.1994 16.5583C20.5043 16.8413 20.7618 17.1714 20.962 17.5361C21.2374 18.0087 21.4223 18.5284 21.5071 19.0688C21.6124 19.6562 21.5931 20.2592 21.4503 20.8386C21.3075 21.4181 21.0446 21.961 20.6785 22.4323ZM14.3107 13.5541C14.3107 13.5997 14.2927 13.6435 14.2607 13.676C14.2287 13.7084 14.1852 13.727 14.1396 13.7277C14.0935 13.7277 14.0494 13.7094 14.0169 13.6768C13.9843 13.6443 13.966 13.6001 13.966 13.5541C13.966 13.5081 13.9843 13.4639 14.0169 13.4314C14.0494 13.3988 14.0935 13.3805 14.1396 13.3805C14.1844 13.3835 14.2266 13.4028 14.2581 13.4348C14.2897 13.4668 14.3084 13.5092 14.3107 13.5541Z" fill="white"/>
</mask>
<g mask="url(#mask0_53_11493)">
<path d="M3.3501 16.9314C3.3501 10.4724 8.58618 5.23633 15.0452 5.23633C21.5042 5.23633 26.7403 10.4724 26.7403 16.9314C26.7403 23.3905 21.5042 28.6265 15.0452 28.6265C8.58618 28.6265 3.3501 23.3905 3.3501 16.9314Z" fill="#1977F2" style="mix-blend-mode:multiply"/>
</g>
<path d="M29.0205 16.2221L30.3387 14.9039C30.5948 15.2275 30.9031 15.5062 31.2508 15.7284C31.9736 16.2024 32.8186 16.4559 33.683 16.4581C34.0952 16.4663 34.5059 16.4071 34.8991 16.283C35.2035 16.1946 35.4789 16.0267 35.6968 15.7965C35.8819 15.5874 35.9825 15.3169 35.9789 15.0377C35.978 14.8464 35.9259 14.6589 35.8279 14.4947C35.73 14.3304 35.5898 14.1954 35.422 14.1037C35.0499 13.8605 34.3859 13.6757 33.43 13.5322C32.6473 13.437 31.8808 13.2374 31.1511 12.9387C30.6393 12.7347 30.1933 12.394 29.862 11.9537C29.5823 11.5401 29.4386 11.0495 29.451 10.5503C29.4413 9.95242 29.6266 9.3676 29.9788 8.88431C30.355 8.38389 30.8591 7.99406 31.4381 7.75578C32.107 7.47627 32.8268 7.33879 33.5516 7.35204C34.4057 7.33623 35.2522 7.51418 36.0276 7.87253C36.7321 8.2063 37.3585 8.68442 37.8663 9.27589L36.5627 10.5795C36.2085 10.1167 35.7621 9.73238 35.2517 9.451C34.7357 9.16738 34.155 9.0224 33.5662 9.03024C33.0283 9.00741 32.4952 9.14088 32.0315 9.41452C31.8509 9.51622 31.7007 9.66428 31.5963 9.84342C31.492 10.0226 31.4374 10.2263 31.4381 10.4336C31.4385 10.5414 31.4601 10.648 31.5019 10.7473C31.5436 10.8467 31.6046 10.9368 31.6813 11.0125C31.9013 11.213 32.168 11.3551 32.4572 11.4259C32.936 11.5625 33.4236 11.6665 33.9165 11.7372C34.7064 11.8404 35.4782 12.0524 36.21 12.3672C36.7388 12.5899 37.197 12.9522 37.5355 13.4154C37.8319 13.8659 37.983 14.3965 37.9685 14.9355C37.9814 15.5486 37.7878 16.1483 37.4188 16.6381C37.0227 17.1428 36.4974 17.5311 35.8987 17.7617C35.1842 18.0388 34.4224 18.1735 33.6562 18.1582C32.7369 18.1763 31.8244 17.9963 30.9808 17.6304C30.2378 17.3002 29.5706 16.8209 29.0205 16.2221Z" fill="#231F20"/>
<path d="M45.8217 17.915H43.9124V13.7025C43.9469 13.2413 43.8071 12.784 43.5209 12.4207C43.3858 12.2775 43.2212 12.1653 43.0386 12.0919C42.8559 12.0184 42.6595 11.9854 42.4629 11.9951C42.1521 11.9954 41.8471 12.0794 41.58 12.2383C41.2817 12.4259 41.0456 12.6975 40.9014 13.019C40.71 13.4518 40.621 13.9229 40.6412 14.3956V17.915H38.7295V7.49316H40.6412V12.8926H40.398C40.4471 12.35 40.6347 11.8291 40.9428 11.3798C41.1891 11.0402 41.5263 10.7771 41.9156 10.6209C42.2683 10.4788 42.6445 10.4046 43.0247 10.402C43.4042 10.3823 43.7835 10.4432 44.1378 10.5807C44.492 10.7182 44.8131 10.9292 45.0799 11.1998C45.5809 11.73 45.8314 12.5018 45.8314 13.5152L45.8217 17.915Z" fill="#231F20"/>
<path d="M49.4089 18.1462C48.9001 18.1581 48.3953 18.0542 47.9326 17.8422C47.5303 17.6601 47.1866 17.3696 46.9403 17.0031C46.7 16.6329 46.5763 16.1991 46.5852 15.7578C46.5728 15.2931 46.7272 14.8392 47.0205 14.4785C47.3506 14.0985 47.7776 13.8152 48.2561 13.6589C48.8551 13.4565 49.4845 13.3586 50.1167 13.3694H51.9846V14.6147H50.2626C49.8259 14.5955 49.3917 14.6902 49.0027 14.8896C48.8546 14.9624 48.7302 15.0758 48.6441 15.2166C48.558 15.3574 48.5137 15.5198 48.5163 15.6849C48.5106 15.8311 48.5412 15.9764 48.6053 16.108C48.6694 16.2395 48.765 16.3532 48.8836 16.4388C49.1689 16.6348 49.5108 16.7314 49.8564 16.7137C50.2139 16.7164 50.5668 16.633 50.8852 16.4705C51.1863 16.3161 51.4445 16.0897 51.6368 15.8113C51.8302 15.5277 51.9452 15.1979 51.97 14.8555L52.5197 15.1157C52.5325 15.6674 52.3973 16.2125 52.1281 16.6942C51.8708 17.1467 51.4905 17.517 51.0312 17.7619C50.5319 18.026 49.9736 18.1583 49.4089 18.1462ZM53.619 17.9152H51.8824V16.4559L51.7973 16.2248V13.4862C51.8107 13.2645 51.7739 13.0427 51.6897 12.8372C51.6055 12.6317 51.476 12.4478 51.3109 12.2993C50.9282 12.001 50.4503 11.8516 49.9659 11.8785C49.5695 11.8753 49.1769 11.9547 48.8129 12.1117C48.449 12.2688 48.1218 12.5 47.8523 12.7906L46.8527 11.6329C47.2527 11.2373 47.7306 10.9292 48.2561 10.7281C48.8285 10.5073 49.4375 10.3967 50.051 10.4022C50.6922 10.3899 51.3288 10.5134 51.9189 10.7646C52.4445 10.9797 52.8905 11.3525 53.1954 11.8317C53.5003 12.3108 53.6492 12.8727 53.6214 13.44L53.619 17.9152Z" fill="#231F20"/>
<path d="M58.914 10.5039V12.2405H58.5224C58.117 12.2309 57.7157 12.3229 57.3549 12.508C57.0169 12.6981 56.7466 12.9889 56.5815 13.3398C56.3764 13.798 56.2799 14.2974 56.2994 14.7991V17.9123H54.3877V10.6328H56.2848V12.9944H56.0416C56.0875 12.4538 56.2746 11.9347 56.5839 11.4889C56.8333 11.1518 57.1696 10.8886 57.5568 10.7277C57.9031 10.5836 58.2738 10.5076 58.6489 10.5039H58.914Z" fill="#231F20"/>
<path d="M61.587 17.915H59.6777V7.49316H61.587V17.915ZM67.4242 17.915H64.992L61.1687 14.1378H61.3122L64.7172 10.6331H67.0034L63.3698 14.2813V13.9919L67.4242 17.915Z" fill="#231F20"/>
<path d="M67.8135 16.8305L68.8544 15.6436C69.548 16.3218 70.4771 16.7052 71.4471 16.7137C71.817 16.7318 72.1848 16.6476 72.51 16.4705C72.6248 16.4141 72.7223 16.3279 72.7925 16.221C72.8627 16.114 72.9028 15.9902 72.9089 15.8624C72.9119 15.7448 72.8797 15.629 72.8164 15.5297C72.7531 15.4305 72.6617 15.3524 72.5538 15.3055C72.1343 15.1382 71.6927 15.0333 71.2428 14.9942C70.1824 14.832 69.4057 14.5831 68.9128 14.2475C68.6795 14.0921 68.4899 13.8795 68.3621 13.63C68.2344 13.3805 68.1728 13.1024 68.1832 12.8222C68.1705 12.3705 68.3063 11.9271 68.5699 11.5599C68.8636 11.1819 69.2533 10.8896 69.6984 10.7136C70.2184 10.5043 70.7749 10.401 71.3353 10.4095C71.9908 10.3974 72.6423 10.5157 73.2518 10.7573C73.7797 10.971 74.2637 11.2802 74.6795 11.6694L73.6361 12.8563C73.3389 12.5521 72.9885 12.3049 72.6024 12.1266C72.2108 11.9418 71.7828 11.8471 71.3499 11.8494C71.0027 11.8351 70.6587 11.9194 70.3575 12.0926C70.2497 12.1471 70.1584 12.2295 70.0934 12.3314C70.0283 12.4332 69.9919 12.5507 69.9878 12.6714C69.9923 12.7767 70.0297 12.8779 70.0947 12.9608C70.1597 13.0437 70.2491 13.1041 70.3502 13.1336C70.7613 13.28 71.1898 13.3724 71.6247 13.4084C72.6657 13.5705 73.4472 13.8267 73.9693 14.177C74.2176 14.3428 74.4195 14.5692 74.5561 14.8347C74.6927 15.1002 74.7594 15.3962 74.75 15.6946C74.7584 16.1636 74.6056 16.6212 74.3171 16.991C74.0046 17.3795 73.5916 17.6747 73.1229 17.8447C72.5554 18.0525 71.9541 18.1532 71.3499 18.1414C70.6671 18.15 69.9892 18.0269 69.353 17.779C68.7853 17.5613 68.2632 17.2396 67.8135 16.8305Z" fill="#231F20"/>
<path d="M32.4401 25.2775H31.6618L29.4875 20.7367H30.0323V25.8758H29.0205V20.3159H30.2366L32.2675 24.5844H31.8394L33.8727 20.3159H35.0717V25.8758H34.0429V20.7294H34.6121L32.4401 25.2775Z" fill="#231F20"/>
<path d="M41.1737 25.8753H40.0428L38.2211 21.045H38.5324L36.7107 25.8729H35.6211L37.81 20.3057H38.9702L41.1737 25.8753ZM40.0355 24.6592H36.735V23.7666H40.0355V24.6592Z" fill="#231F20"/>
<path d="M42.7743 25.8755H41.7236V20.3156H43.9783C44.3393 20.3072 44.6976 20.3803 45.0265 20.5296C45.3098 20.6609 45.552 20.8669 45.727 21.1255C45.8946 21.3906 45.9793 21.6997 45.9702 22.0132C45.9789 22.3283 45.8943 22.6388 45.727 22.9059C45.5522 23.1652 45.31 23.372 45.0265 23.5042C44.6978 23.6543 44.3395 23.7283 43.9783 23.7206H42.6941V22.8232H43.9783C44.2261 22.8377 44.4705 22.7597 44.6641 22.6043C44.7467 22.529 44.8114 22.4362 44.8535 22.3327C44.8956 22.2291 44.914 22.1175 44.9073 22.0059C44.9143 21.8954 44.896 21.7848 44.8539 21.6824C44.8117 21.58 44.7469 21.4885 44.6641 21.4149C44.4705 21.2595 44.2261 21.1815 43.9783 21.196H42.7622L42.7743 25.8755ZM46.5515 25.8755H45.2649L43.2948 23.2828H44.5109L46.5515 25.8755Z" fill="#231F20"/>
<path d="M48.1518 25.8758H47.1011V20.3159H48.1518V25.8758ZM52.1916 25.8758H50.7688L47.9572 22.9913H48.0812L50.5645 20.3159H51.8657L49.2098 23.0959V22.8794L52.1916 25.8758Z" fill="#231F20"/>
<path d="M56.6594 25.8758H52.7339V20.3159H56.6521V21.2037H53.7943V24.9881H56.6594V25.8758ZM56.511 23.5021H53.7068V22.6143H56.5013L56.511 23.5021Z" fill="#231F20"/>
<path d="M61.7474 21.2037H57.209V20.3159H61.7474V21.2037ZM60.0035 25.8758H58.9529V21.1258H60.0035V25.8758Z" fill="#231F20"/>
<path d="M63.3505 25.8758H62.2974V20.3159H63.3505V25.8758Z" fill="#231F20"/>
<path d="M64.9263 25.8758H63.8975V20.3159H65.0041L68.0808 24.8714H67.6746V20.3159H68.7034V25.8758H67.5968L64.5298 21.3131H64.9263V25.8758Z" fill="#231F20"/>
<path d="M74.7498 25.8756H73.777V25.1119L73.8694 25.1508C73.6897 25.4241 73.4369 25.6415 73.1398 25.7783C72.8158 25.9301 72.4614 26.0058 72.1037 25.9996C71.7175 26.004 71.3341 25.9329 70.9751 25.7904C70.6354 25.6502 70.3276 25.4425 70.0704 25.18C69.807 24.9164 69.6015 24.6008 69.4672 24.2533C69.321 23.8791 69.2483 23.4803 69.2532 23.0786C69.2483 22.6809 69.3236 22.2864 69.4745 21.9184C69.6175 21.5729 69.8294 21.2601 70.0971 20.9991C70.3696 20.7363 70.691 20.5297 71.0432 20.391C71.4232 20.2443 71.8276 20.1708 72.235 20.1746C72.6976 20.1687 73.1555 20.2668 73.5751 20.4616C73.9528 20.6363 74.2855 20.895 74.548 21.218L73.8548 21.9184C73.6728 21.6725 73.4364 21.4719 73.1641 21.3323C72.8745 21.1815 72.5518 21.1054 72.2253 21.111C71.8847 21.1003 71.5479 21.1845 71.2524 21.3542C70.9707 21.5238 70.7404 21.7668 70.586 22.0571C70.42 22.3707 70.3363 22.7213 70.3428 23.0761C70.3367 23.4363 70.4202 23.7924 70.586 24.1122C70.739 24.4056 70.9706 24.6506 71.2548 24.82C71.5493 24.9936 71.8859 25.0828 72.2277 25.0778C72.5674 25.0805 72.9021 24.9968 73.2006 24.8346C73.4779 24.6875 73.6973 24.4509 73.8232 24.1633L73.7454 24.4673V23.6793H72.1401V22.8305H74.7255L74.7498 25.8756Z" fill="#231F20"/>
</g>
<defs>
<clipPath id="clip0_53_11493">
<rect width="74.4997" height="32" fill="white" transform="translate(0.25 0.666016)"/>
</clipPath>
</defs>
</svg>
